<?xml version="1.0" encoding="utf-8"?>
<!-- Generator: Adobe Illustrator 24.3.0, SVG Export Plug-In . SVG Version: 6.00 Build 0)  -->
<svg version="1.1" id="Layer_1" xmlns="http://www.w3.org/2000/svg" xmlns:xlink="http://www.w3.org/1999/xlink" x="0px" y="0px"
	 viewBox="0 0 48 48" style="enable-background:new 0 0 48 48;" xml:space="preserve">
<style type="text/css">
	.st0{fill:#CC0000;}
</style>
<path class="st0" d="M41.7,46l-5.8-5.8c-1.7,1.2-3.5,2.2-5.5,2.8s-4.1,1-6.4,1c-2.8,0-5.4-0.5-7.8-1.6s-4.6-2.5-6.4-4.3
	c-1.8-1.8-3.2-3.9-4.3-6.4S4,26.8,4,24c0-2.2,0.3-4.4,1-6.4s1.6-3.8,2.8-5.5L1.3,5.6l2.2-2.2l40.3,40.3L41.7,46z M21.9,41v-4.1
	c-1.2,0-2.1-0.4-3-1.3c-0.8-0.9-1.2-1.9-1.2-3v-2.2L7.5,20c-0.2,0.7-0.3,1.3-0.4,2C7,22.7,7,23.3,7,24c0,4.3,1.4,8.1,4.2,11.3
	C14,38.6,17.6,40.5,21.9,41z M40.2,35.8L38,33.7c1-1.4,1.7-3,2.2-4.6c0.5-1.6,0.8-3.3,0.8-5.1c0-3.5-1-6.7-2.9-9.6s-4.5-5-7.8-6.3
	v0.9c0,1.2-0.4,2.2-1.2,3c-0.8,0.9-1.8,1.3-2.9,1.3h-4.4v4.2l-9.7-9.7c1.7-1.2,3.5-2.2,5.5-2.8s4.1-1,6.4-1c2.8,0,5.4,0.5,7.8,1.6
	s4.6,2.5,6.4,4.3s3.2,3.9,4.3,6.3c1.1,2.4,1.6,5,1.6,7.8c0,2.2-0.3,4.4-1,6.4C42.3,32.3,41.4,34.2,40.2,35.8z"/>
</svg>
