<svg width="512" height="512" fill="#ffffff" viewBox="0 0 24 24" transform="" id="injected-svg"><!--Boxicons v3.0.6 https://boxicons.com | License  https://docs.boxicons.com/free--><path d="m20,3H4c-1.1,0-2,.9-2,2v14c0,1.1.9,2,2,2h16c1.1,0,2-.9,2-2V5c0-1.1-.9-2-2-2Zm0,2v2s-16,0-16,0v-2h16ZM4,19v-10h16v10s-16,0-16,0Z"></path><path d="m15,13c-.38,0-.73.21-.89.55l-.61,1.21-2.11-4.21c-.34-.68-1.45-.68-1.79,0l-1.22,2.45h-2.38v2h3c.38,0,.73-.21.89-.55l.61-1.21,2.11,4.21c.17.34.52.55.89.55s.73-.21.89-.55l1.22-2.45h2.38v-2h-3Z"></path></svg>