<?xml version="1.0" encoding="utf-8"?>
<!-- Generator: Adobe Illustrator 24.3.0, SVG Export Plug-In . SVG Version: 6.00 Build 0)  -->
<svg version="1.1" id="Layer_1" xmlns="http://www.w3.org/2000/svg" xmlns:xlink="http://www.w3.org/1999/xlink" x="0px" y="0px"
	 viewBox="0 0 48 48" style="enable-background:new 0 0 48 48;" xml:space="preserve">
<style type="text/css">
	.st0{fill:#CC0000;}
</style>
<path class="st0" d="M28.3,14.6l-2.1-2.1c0.8-0.8,1.7-1.4,2.7-1.9c1-0.5,2.1-0.7,3.3-0.7c1.2,0,2.3,0.2,3.3,0.7
	c1,0.5,1.9,1.1,2.7,1.9l-2.1,2.1c-0.5-0.5-1-0.9-1.8-1.2c-0.7-0.3-1.4-0.5-2.2-0.5c-0.8,0-1.5,0.2-2.2,0.5S28.8,14.2,28.3,14.6z
	 M24.1,10.4l-2.2-2.2c1.1-1.1,2.6-2.1,4.4-2.9c1.8-0.8,3.9-1.3,6-1.3s4.2,0.4,6.1,1.3c1.8,0.9,3.3,1.8,4.4,2.9l-2.2,2.2
	c-0.9-1-2-1.8-3.4-2.4c-1.4-0.7-3-1-4.8-1c-1.8,0-3.4,0.3-4.8,1S24.9,9.4,24.1,10.4z M42,37.7L30.8,26.5V17h3v8.8H39
	c0.8,0,1.5,0.3,2.1,0.9c0.6,0.6,0.9,1.3,0.9,2.1V37.7z M9,39h25.7L24.5,28.8H9V39z M40.7,45l-3-3H9c-0.8,0-1.5-0.3-2.1-0.9
	C6.3,40.5,6,39.8,6,39V28.8c0-0.8,0.3-1.5,0.9-2.1c0.6-0.6,1.3-0.9,2.1-0.9h12.5L3,7.3l2.2-2.2l37.6,37.6L40.7,45z M14.1,36
	c-0.6,0-1.1-0.2-1.5-0.6C12.2,35,12,34.5,12,33.9c0-0.6,0.2-1.1,0.6-1.5c0.4-0.4,0.9-0.6,1.5-0.6c0.6,0,1.1,0.2,1.5,0.6
	c0.4,0.4,0.6,0.9,0.6,1.5c0,0.6-0.2,1.1-0.6,1.5C15.2,35.8,14.7,36,14.1,36z M21.5,36c-0.6,0-1.1-0.2-1.5-0.6
	c-0.4-0.4-0.6-0.9-0.6-1.5c0-0.6,0.2-1.1,0.6-1.5c0.4-0.4,0.9-0.6,1.5-0.6c0.6,0,1.1,0.2,1.5,0.6c0.4,0.4,0.6,0.9,0.6,1.5
	c0,0.6-0.2,1.1-0.6,1.5C22.6,35.8,22.1,36,21.5,36z M28.9,36c-0.6,0-1.1-0.2-1.5-0.6c-0.4-0.4-0.6-0.9-0.6-1.5
	c0-0.6,0.2-1.1,0.6-1.5c0.4-0.4,0.9-0.6,1.5-0.6c0.6,0,1.1,0.2,1.5,0.6c0.4,0.4,0.6,0.9,0.6,1.5c0,0.6-0.2,1.1-0.6,1.5
	C30,35.8,29.5,36,28.9,36z M9,39V28.8V39z"/>
</svg>
