<?xml version="1.0" encoding="utf-8"?>
<!-- Generator: Adobe Illustrator 24.3.0, SVG Export Plug-In . SVG Version: 6.00 Build 0)  -->
<svg version="1.1" id="Layer_1" xmlns="http://www.w3.org/2000/svg" xmlns:xlink="http://www.w3.org/1999/xlink" x="0px" y="0px"
	 viewBox="0 0 16 16" style="enable-background:new 0 0 16 16;" xml:space="preserve">
<style type="text/css">
	.st0{fill:#CC0000;}
</style>
<path class="st0" d="M12,10.6l3.9,3.9l-1.4,1.4L12,13.4V15c0,0.6-0.4,1-1,1H5c-0.6,0-1-0.4-1-1V5.4L0.1,1.5l1.4-1.4L4,2.6L12,10.6z
	 M5.5,14C5.8,14,6,14.2,6,14.5S5.8,15,5.5,15S5,14.8,5,14.5S5.2,14,5.5,14 M7.5,14C7.8,14,8,14.2,8,14.5S7.8,15,7.5,15
	S7,14.8,7,14.5S7.2,14,7.5,14 M5,1.5C5,1.2,5.2,1,5.5,1h5C10.8,1,11,1.2,11,1.5S10.8,2,10.5,2h-5C5.2,2,5,1.8,5,1.5 M4,1l2,2l4.5,0
	C10.8,3,11,3.2,11,3.5S10.8,4,10.5,4H7l5,5V1c0-0.6-0.4-1-1-1H5C4.4,0,4,0.4,4,1"/>
</svg>
